<svg width="354" height="48" viewBox="0 0 354 48" fill="none" xmlns="http://www.w3.org/2000/svg">
<rect width="354" height="48" rx="3" fill="#212121"/>
<g clip-path="url(#clip0_10998_3668)">
<path d="M290 1H351C352.105 1 353 1.89543 353 3V44.913C353 46.0176 352.105 46.913 351 46.913H290V1Z" fill="#0D6EFD"/>
<path fill-rule="evenodd" clip-rule="evenodd" d="M315.55 21.8945C315.261 21.5926 315.261 21.1032 315.55 20.8014C315.813 20.527 316.224 20.502 316.514 20.7265L316.598 20.8014L322 26.438L327.402 20.8014C327.665 20.527 328.076 20.502 328.366 20.7265L328.449 20.8014C328.712 21.0758 328.736 21.5052 328.521 21.8078L328.449 21.8945L322.523 28.0781C322.26 28.3525 321.849 28.3774 321.559 28.1529L321.476 28.0781L315.55 21.8945Z" fill="white"/>
</g>
<path d="M23.7109 21.918C23.7109 22.9297 23.3646 23.709 22.6719 24.2559C21.9837 24.7982 20.9971 25.0693 19.7119 25.0693H18.5361V29H17.374V19.0059H19.9648C22.4622 19.0059 23.7109 19.9766 23.7109 21.918ZM18.5361 24.0713H19.582C20.612 24.0713 21.3571 23.9049 21.8174 23.5723C22.2777 23.2396 22.5078 22.7064 22.5078 21.9727C22.5078 21.3118 22.2913 20.8197 21.8584 20.4961C21.4255 20.1725 20.751 20.0107 19.835 20.0107H18.5361V24.0713ZM26.7734 29H25.6387V18.3633H26.7734V29ZM33.7871 29L33.5615 27.9336H33.5068C33.1331 28.403 32.7594 28.722 32.3857 28.8906C32.0166 29.0547 31.554 29.1367 30.998 29.1367C30.2552 29.1367 29.6719 28.9453 29.248 28.5625C28.8288 28.1797 28.6191 27.6351 28.6191 26.9287C28.6191 25.4157 29.8291 24.6227 32.249 24.5498L33.5205 24.5088V24.0439C33.5205 23.4561 33.3929 23.0231 33.1377 22.7451C32.887 22.4626 32.4837 22.3213 31.9277 22.3213C31.3034 22.3213 30.597 22.5127 29.8086 22.8955L29.46 22.0273C29.8291 21.8268 30.2324 21.6696 30.6699 21.5557C31.112 21.4417 31.554 21.3848 31.9961 21.3848C32.8893 21.3848 33.5501 21.583 33.9785 21.9795C34.4115 22.376 34.6279 23.0117 34.6279 23.8867V29H33.7871ZM31.2236 28.2002C31.93 28.2002 32.4837 28.0065 32.8848 27.6191C33.2904 27.2318 33.4932 26.6895 33.4932 25.9922V25.3154L32.3584 25.3633C31.4561 25.3952 30.8044 25.5365 30.4033 25.7871C30.0068 26.0332 29.8086 26.4183 29.8086 26.9424C29.8086 27.3525 29.9316 27.6647 30.1777 27.8789C30.4284 28.0931 30.777 28.2002 31.2236 28.2002ZM39.9668 29.1367C38.8822 29.1367 38.0413 28.804 37.4443 28.1387C36.8519 27.4688 36.5557 26.5231 36.5557 25.3018C36.5557 24.0485 36.8564 23.0801 37.458 22.3965C38.0641 21.7129 38.9255 21.3711 40.042 21.3711C40.402 21.3711 40.762 21.4098 41.1221 21.4873C41.4821 21.5648 41.7646 21.6559 41.9697 21.7607L41.6211 22.7246C41.3704 22.6243 41.097 22.5423 40.8008 22.4785C40.5046 22.4102 40.2425 22.376 40.0146 22.376C38.4925 22.376 37.7314 23.3467 37.7314 25.2881C37.7314 26.2087 37.916 26.915 38.2852 27.4072C38.6589 27.8994 39.2103 28.1455 39.9395 28.1455C40.5638 28.1455 41.2041 28.0111 41.8604 27.7422V28.7471C41.359 29.0068 40.7279 29.1367 39.9668 29.1367ZM46.8096 29.1367C45.7021 29.1367 44.8271 28.7995 44.1846 28.125C43.5465 27.4505 43.2275 26.514 43.2275 25.3154C43.2275 24.1077 43.5238 23.1484 44.1162 22.4375C44.7132 21.7266 45.513 21.3711 46.5156 21.3711C47.4544 21.3711 48.1973 21.681 48.7441 22.3008C49.291 22.916 49.5645 23.7295 49.5645 24.7412V25.459H44.4033C44.4261 26.3385 44.6471 27.0062 45.0664 27.4619C45.4902 27.9176 46.085 28.1455 46.8506 28.1455C47.6572 28.1455 48.4548 27.9769 49.2432 27.6396V28.6514C48.8421 28.8245 48.4616 28.9476 48.1016 29.0205C47.7461 29.098 47.3154 29.1367 46.8096 29.1367ZM46.502 22.3213C45.9004 22.3213 45.4196 22.5173 45.0596 22.9092C44.7041 23.3011 44.4945 23.8434 44.4307 24.5361H48.3477C48.3477 23.8206 48.1882 23.2738 47.8691 22.8955C47.5501 22.5127 47.0944 22.3213 46.502 22.3213ZM56.6328 29V24.1533C56.6328 23.5426 56.4938 23.0869 56.2158 22.7861C55.9378 22.4854 55.5026 22.335 54.9102 22.335C54.1217 22.335 53.5452 22.5492 53.1807 22.9775C52.8206 23.4059 52.6406 24.1077 52.6406 25.083V29H51.5059V18.3633H52.6406V21.583C52.6406 21.9704 52.6224 22.2917 52.5859 22.5469H52.6543C52.8776 22.1868 53.1943 21.9043 53.6045 21.6992C54.0192 21.4896 54.4909 21.3848 55.0195 21.3848C55.9355 21.3848 56.6214 21.6035 57.0771 22.041C57.5374 22.474 57.7676 23.1644 57.7676 24.1123V29H56.6328ZM66.5723 25.2471C66.5723 26.4684 66.2646 27.4232 65.6494 28.1113C65.0342 28.7949 64.1842 29.1367 63.0996 29.1367C62.4297 29.1367 61.835 28.9795 61.3154 28.665C60.7959 28.3506 60.3949 27.8994 60.1123 27.3115C59.8298 26.7236 59.6885 26.0355 59.6885 25.2471C59.6885 24.0257 59.9938 23.0755 60.6045 22.3965C61.2152 21.7129 62.0628 21.3711 63.1475 21.3711C64.1956 21.3711 65.0273 21.7197 65.6426 22.417C66.2624 23.1143 66.5723 24.0576 66.5723 25.2471ZM60.8643 25.2471C60.8643 26.2041 61.0557 26.9333 61.4385 27.4346C61.8213 27.9359 62.3841 28.1865 63.127 28.1865C63.8698 28.1865 64.4326 27.9382 64.8154 27.4414C65.2028 26.9401 65.3965 26.2087 65.3965 25.2471C65.3965 24.2946 65.2028 23.5723 64.8154 23.0801C64.4326 22.5833 63.8652 22.335 63.1133 22.335C62.3704 22.335 61.8099 22.5788 61.4316 23.0664C61.0534 23.554 60.8643 24.2809 60.8643 25.2471ZM69.7031 29H68.5684V18.3633H69.7031V29ZM77.209 27.9951H77.1475C76.6234 28.7562 75.8395 29.1367 74.7959 29.1367C73.8161 29.1367 73.0527 28.8018 72.5059 28.1318C71.9635 27.4619 71.6924 26.5094 71.6924 25.2744C71.6924 24.0394 71.9658 23.0801 72.5127 22.3965C73.0596 21.7129 73.8206 21.3711 74.7959 21.3711C75.8122 21.3711 76.5915 21.7402 77.1338 22.4785H77.2227L77.1748 21.9385L77.1475 21.4121V18.3633H78.2822V29H77.3594L77.209 27.9951ZM74.9395 28.1865C75.7142 28.1865 76.2747 27.9769 76.6211 27.5576C76.972 27.1338 77.1475 26.4525 77.1475 25.5137V25.2744C77.1475 24.2126 76.9697 23.4561 76.6143 23.0049C76.2633 22.5492 75.7005 22.3213 74.9258 22.3213C74.2604 22.3213 73.75 22.5811 73.3945 23.1006C73.0436 23.6156 72.8682 24.3447 72.8682 25.2881C72.8682 26.2451 73.0436 26.9674 73.3945 27.4551C73.7454 27.9427 74.2604 28.1865 74.9395 28.1865ZM83.8604 29.1367C82.7529 29.1367 81.8779 28.7995 81.2354 28.125C80.5973 27.4505 80.2783 26.514 80.2783 25.3154C80.2783 24.1077 80.5745 23.1484 81.167 22.4375C81.764 21.7266 82.5638 21.3711 83.5664 21.3711C84.5052 21.3711 85.248 21.681 85.7949 22.3008C86.3418 22.916 86.6152 23.7295 86.6152 24.7412V25.459H81.4541C81.4769 26.3385 81.6979 27.0062 82.1172 27.4619C82.541 27.9176 83.1357 28.1455 83.9014 28.1455C84.708 28.1455 85.5055 27.9769 86.2939 27.6396V28.6514C85.8929 28.8245 85.5124 28.9476 85.1523 29.0205C84.7969 29.098 84.3662 29.1367 83.8604 29.1367ZM83.5527 22.3213C82.9512 22.3213 82.4704 22.5173 82.1104 22.9092C81.7549 23.3011 81.5452 23.8434 81.4814 24.5361H85.3984C85.3984 23.8206 85.2389 23.2738 84.9199 22.8955C84.6009 22.5127 84.1452 22.3213 83.5527 22.3213ZM91.9746 21.3711C92.3073 21.3711 92.6058 21.3984 92.8701 21.4531L92.7129 22.5059C92.403 22.4375 92.1296 22.4033 91.8926 22.4033C91.2865 22.4033 90.7669 22.6494 90.334 23.1416C89.9056 23.6338 89.6914 24.2467 89.6914 24.9805V29H88.5566V21.5078H89.4932L89.623 22.8955H89.6777C89.9557 22.4079 90.2907 22.0319 90.6826 21.7676C91.0745 21.5033 91.5052 21.3711 91.9746 21.3711Z" fill="#807E7E"/>
<defs>
<clipPath id="clip0_10998_3668">
<rect width="63" height="45.913" fill="white" transform="translate(290 1)"/>
</clipPath>
</defs>
</svg>
