<svg width="88" height="12" viewBox="0 0 88 12" fill="none" xmlns="http://www.w3.org/2000/svg">
<path d="M6.28613 3.76074C5.71647 3.76074 5.27669 3.95898 4.9668 4.35547C4.66146 4.75195 4.50879 5.30111 4.50879 6.00293C4.50879 6.76855 4.65234 7.33594 4.93945 7.70508C5.23112 8.07422 5.67546 8.25879 6.27246 8.25879C6.66439 8.25879 7.14518 8.15625 7.71484 7.95117V8.79883C7.49609 8.88997 7.27051 8.96745 7.03809 9.03125C6.81022 9.09505 6.53678 9.12695 6.21777 9.12695C5.33366 9.12695 4.65462 8.85352 4.18066 8.30664C3.70671 7.75521 3.46973 6.9873 3.46973 6.00293C3.46973 5.05046 3.72038 4.29395 4.22168 3.7334C4.72754 3.17285 5.41569 2.89258 6.28613 2.89258C6.86947 2.89258 7.43001 3.0293 7.96777 3.30273L7.57129 4.10938C7.0791 3.87695 6.65072 3.76074 6.28613 3.76074ZM0.865234 6.00293C0.865234 5.09147 1.0931 4.23698 1.54883 3.43945C2.00456 2.64193 2.63118 2.01302 3.42871 1.55273C4.22624 1.09245 5.08529 0.862305 6.00586 0.862305C6.91732 0.862305 7.77181 1.09017 8.56934 1.5459C9.36686 2.00163 9.99577 2.62826 10.4561 3.42578C10.9163 4.22331 11.1465 5.08236 11.1465 6.00293C11.1465 6.90072 10.9255 7.74382 10.4834 8.53223C10.0413 9.32064 9.42155 9.95182 8.62402 10.4258C7.8265 10.8997 6.95378 11.1367 6.00586 11.1367C5.0625 11.1367 4.19206 10.902 3.39453 10.4326C2.59701 9.95866 1.97493 9.32747 1.52832 8.53906C1.08626 7.75065 0.865234 6.90527 0.865234 6.00293ZM1.58301 6.00293C1.58301 6.79134 1.78125 7.52962 2.17773 8.21777C2.57422 8.90137 3.11426 9.44141 3.79785 9.83789C4.486 10.2298 5.22201 10.4258 6.00586 10.4258C6.79883 10.4258 7.53483 10.2275 8.21387 9.83105C8.8929 9.43457 9.43066 8.89909 9.82715 8.22461C10.2282 7.54557 10.4287 6.80501 10.4287 6.00293C10.4287 5.20996 10.2305 4.47396 9.83398 3.79492C9.4375 3.11589 8.89974 2.57812 8.2207 2.18164C7.54622 1.7806 6.80794 1.58008 6.00586 1.58008C5.21289 1.58008 4.47689 1.77832 3.79785 2.1748C3.11882 2.57129 2.57878 3.10905 2.17773 3.78809C1.78125 4.46257 1.58301 5.20085 1.58301 6.00293ZM22.7197 11H16.1504V10.0225L18.7822 7.37695C19.5843 6.56576 20.113 5.98698 20.3682 5.64062C20.6234 5.29427 20.8148 4.95703 20.9424 4.62891C21.07 4.30078 21.1338 3.94759 21.1338 3.56934C21.1338 3.03613 20.972 2.61458 20.6484 2.30469C20.3249 1.99023 19.876 1.83301 19.3018 1.83301C18.887 1.83301 18.4928 1.90137 18.1191 2.03809C17.75 2.1748 17.3376 2.42318 16.8818 2.7832L16.2803 2.01074C17.2008 1.24512 18.2035 0.862305 19.2881 0.862305C20.2269 0.862305 20.9629 1.10384 21.4961 1.58691C22.0293 2.06543 22.2959 2.71029 22.2959 3.52148C22.2959 4.15495 22.1182 4.78158 21.7627 5.40137C21.4072 6.02116 20.7419 6.80501 19.7666 7.75293L17.5791 9.89258V9.94727H22.7197V11ZM30.7861 5.98926C30.7861 7.71647 30.5127 9.00618 29.9658 9.8584C29.4235 10.7106 28.5918 11.1367 27.4707 11.1367C26.3952 11.1367 25.5771 10.7015 25.0166 9.83105C24.4561 8.95605 24.1758 7.67546 24.1758 5.98926C24.1758 4.24837 24.4469 2.95638 24.9893 2.11328C25.5316 1.27018 26.3587 0.848633 27.4707 0.848633C28.5553 0.848633 29.3779 1.28841 29.9385 2.16797C30.5036 3.04753 30.7861 4.32129 30.7861 5.98926ZM25.3242 5.98926C25.3242 7.44303 25.4951 8.5026 25.8369 9.16797C26.1787 9.82878 26.7233 10.1592 27.4707 10.1592C28.2272 10.1592 28.7741 9.82422 29.1113 9.1543C29.4531 8.47982 29.624 7.4248 29.624 5.98926C29.624 4.55371 29.4531 3.50326 29.1113 2.83789C28.7741 2.16797 28.2272 1.83301 27.4707 1.83301C26.7233 1.83301 26.1787 2.16341 25.8369 2.82422C25.4951 3.48047 25.3242 4.53548 25.3242 5.98926ZM36.3779 11H35.2705V3.87695C35.2705 3.28451 35.2887 2.72396 35.3252 2.19531C35.2295 2.29102 35.1224 2.39128 35.0039 2.49609C34.8854 2.60091 34.3431 3.04525 33.377 3.8291L32.7754 3.0498L35.4209 1.00586H36.3779V11ZM46.7549 5.27148C46.7549 9.18164 45.2419 11.1367 42.2158 11.1367C41.6872 11.1367 41.2679 11.0911 40.958 11V10.0225C41.3226 10.141 41.7373 10.2002 42.2021 10.2002C43.2959 10.2002 44.1208 9.86296 44.6768 9.18848C45.2373 8.50944 45.5426 7.47038 45.5928 6.07129H45.5107C45.2601 6.44954 44.9274 6.73893 44.5127 6.93945C44.098 7.13542 43.6309 7.2334 43.1113 7.2334C42.2272 7.2334 41.5254 6.96908 41.0059 6.44043C40.4863 5.91178 40.2266 5.1735 40.2266 4.22559C40.2266 3.18652 40.516 2.36621 41.0947 1.76465C41.6781 1.16309 42.4437 0.862305 43.3916 0.862305C44.0706 0.862305 44.6631 1.03776 45.1689 1.38867C45.6794 1.73503 46.0713 2.24316 46.3447 2.91309C46.6182 3.57845 46.7549 4.36458 46.7549 5.27148ZM43.3916 1.83301C42.7399 1.83301 42.2363 2.04264 41.8809 2.46191C41.5254 2.88118 41.3477 3.46452 41.3477 4.21191C41.3477 4.86816 41.5117 5.38542 41.8398 5.76367C42.168 6.13737 42.667 6.32422 43.3369 6.32422C43.7516 6.32422 44.1322 6.23991 44.4785 6.07129C44.8294 5.90267 45.1051 5.67253 45.3057 5.38086C45.5062 5.08919 45.6064 4.78385 45.6064 4.46484C45.6064 3.98633 45.513 3.54427 45.3262 3.13867C45.1393 2.73307 44.8773 2.41406 44.54 2.18164C44.2074 1.94922 43.8245 1.83301 43.3916 1.83301ZM53.6865 11H52.5244V1.00586H58.0957V2.03809H53.6865V5.69531H57.8291V6.72754H53.6865V11ZM64.1934 11L63.9678 9.93359H63.9131C63.5394 10.403 63.1657 10.722 62.792 10.8906C62.4229 11.0547 61.9603 11.1367 61.4043 11.1367C60.6615 11.1367 60.0781 10.9453 59.6543 10.5625C59.235 10.1797 59.0254 9.63509 59.0254 8.92871C59.0254 7.41569 60.2354 6.62272 62.6553 6.5498L63.9268 6.50879V6.04395C63.9268 5.45605 63.7992 5.02311 63.5439 4.74512C63.2933 4.46257 62.89 4.32129 62.334 4.32129C61.7096 4.32129 61.0033 4.5127 60.2148 4.89551L59.8662 4.02734C60.2354 3.82682 60.6387 3.6696 61.0762 3.55566C61.5182 3.44173 61.9603 3.38477 62.4023 3.38477C63.2956 3.38477 63.9564 3.58301 64.3848 3.97949C64.8177 4.37598 65.0342 5.01172 65.0342 5.88672V11H64.1934ZM61.6299 10.2002C62.3363 10.2002 62.89 10.0065 63.291 9.61914C63.6966 9.23177 63.8994 8.68945 63.8994 7.99219V7.31543L62.7646 7.36328C61.8623 7.39518 61.2106 7.53646 60.8096 7.78711C60.4131 8.0332 60.2148 8.41829 60.2148 8.94238C60.2148 9.35254 60.3379 9.66471 60.584 9.87891C60.8346 10.0931 61.1833 10.2002 61.6299 10.2002ZM70.8652 3.38477C71.8496 3.38477 72.613 3.72201 73.1553 4.39648C73.7021 5.06641 73.9756 6.0166 73.9756 7.24707C73.9756 8.47754 73.6999 9.43457 73.1484 10.1182C72.6016 10.7972 71.8405 11.1367 70.8652 11.1367C70.3776 11.1367 69.931 11.0479 69.5254 10.8701C69.1243 10.6878 68.7871 10.4098 68.5137 10.0361H68.4316L68.1924 11H67.3789V0.363281H68.5137V2.94727C68.5137 3.52604 68.4954 4.04557 68.459 4.50586H68.5137C69.0423 3.75846 69.8262 3.38477 70.8652 3.38477ZM70.7012 4.33496C69.9264 4.33496 69.3682 4.55827 69.0264 5.00488C68.6846 5.44694 68.5137 6.19434 68.5137 7.24707C68.5137 8.2998 68.6891 9.05404 69.04 9.50977C69.391 9.96094 69.9538 10.1865 70.7285 10.1865C71.4258 10.1865 71.9453 9.93359 72.2871 9.42773C72.6289 8.91732 72.7998 8.18587 72.7998 7.2334C72.7998 6.25814 72.6289 5.53125 72.2871 5.05273C71.9453 4.57422 71.4167 4.33496 70.7012 4.33496ZM79.3828 3.37109C79.7155 3.37109 80.014 3.39844 80.2783 3.45312L80.1211 4.50586C79.8112 4.4375 79.5378 4.40332 79.3008 4.40332C78.6947 4.40332 78.1751 4.64941 77.7422 5.1416C77.3138 5.63379 77.0996 6.24674 77.0996 6.98047V11H75.9648V3.50781H76.9014L77.0312 4.89551H77.0859C77.3639 4.40788 77.6989 4.0319 78.0908 3.76758C78.4827 3.50326 78.9134 3.37109 79.3828 3.37109ZM83.4844 7.16504L80.8799 3.50781H82.1719L84.1475 6.37891L86.1162 3.50781H87.3945L84.79 7.16504L87.5312 11H86.2461L84.1475 7.96484L82.0283 11H80.7432L83.4844 7.16504Z" fill="#807E7E"/>
</svg>
